# xmcd
#
# Track frame offsets:
#	150
#	14074
#	30784
#	49166
#	61184
#	79519
#	96933
#	110836
#	127359
#	142961
#	158742
#	174107
#	190024
#	205680
#	221682
#	238466
#	252470
#	273681
#	288227
#	304256
#	321724
#
# Disc length: 4495 seconds
#
# Revision: 0
# Processed by: cddbd v1.5.1PL2 Copyright (c) Steve Scherf et al.
# Submitted via: EasyCDDAExtractor 8.2.2.1
#
DISCID=3d118d15
DTITLE=Various Artist - CARIBE 2006
DYEAR=1900
DGENRE=
TTITLE0=Breo Bronchal - Lo Prefiero
TTITLE1=Javier Rios - Alas
TTITLE2=David Civera - El Orgullo y La Visa
TTITLE3=La Banda del Capitan Canalla - A Por Ellos, OE
TTITLE4=Erika Ender - Luna Nueva
TTITLE5=Juan Carlos Perez Sot - Subele Volumen
TTITLE6=Merche - Bombon
TTITLE7=Marcos Llunas - Su Amor Me La Jugo
TTITLE8=Mario Mendes - Despues Te Vas
TTITLE9=Lua - Asim Chegaremos La
TTITLE10=Jimmy Bad Boy - Esa Mujer
TTITLE11=Gusanito - El Movimiento Del Amor
TTITLE12=Guille Barea - Semillas De Amor
TTITLE13=Carlinhos Brown - Faz Um
TTITLE14=JMP feat - Republica Latinoamericana
TTITLE15=Sissi - Todo Un Caballero
TTITLE16=Gilberto Santa Rosa - Lo Grande Que Es Perdonar
TTITLE17=´Kontrbanda - Cerveza Party
TTITLE18=Adrian Leo - Que Suene El Son
TTITLE19=Preta Gil - Que Deus Deu
TTITLE20=Anabel Lee - Tu Me Robaste El Corazon
EXTD=
EXTT0=
EXTT1=
EXTT2=
EXTT3=
EXTT4=
EXTT5=
EXTT6=
EXTT7=
EXTT8=
EXTT9=
EXTT10=
EXTT11=
EXTT12=
EXTT13=
EXTT14=
EXTT15=
EXTT16=
EXTT17=
EXTT18=
EXTT19=
EXTT20=
PLAYORDER=
